<?xml version="1.0" standalone="no"?>
<!DOCTYPE svg PUBLIC "-//W3C//DTD SVG 20010904//EN"
 "http://www.w3.org/TR/2001/REC-SVG-20010904/DTD/svg10.dtd">
<svg version="1.0" xmlns="http://www.w3.org/2000/svg"
 width="623.000000pt" height="316.000000pt" viewBox="0 0 623.000000 316.000000"
 preserveAspectRatio="xMidYMid meet">

<g transform="translate(0.000000,316.000000) scale(0.100000,-0.100000)"
fill="#000000" stroke="none">
<path d="M1715 1810 c-8 -13 5 -314 14 -327 3 -5 38 -6 76 -3 l70 5 3 53 3 52
45 0 44 0 0 45 0 45 -40 0 c-38 0 -40 2 -40 29 0 28 2 30 48 33 47 3 47 3 50
41 l3 37 -135 0 c-83 0 -137 -4 -141 -10z"/>
<path d="M2610 1812 c0 -4 13 -29 30 -55 67 -105 66 -98 20 -185 -22 -43 -40
-83 -40 -90 0 -9 18 -12 67 -10 l68 3 23 43 c13 23 27 42 32 42 4 0 13 -14 20
-30 7 -17 22 -37 34 -45 25 -18 126 -21 126 -3 0 6 -19 48 -41 92 l-42 81 47
76 c25 42 46 79 46 83 0 3 -31 6 -69 6 l-68 0 -24 -45 c-13 -25 -29 -45 -34
-45 -6 0 -21 20 -33 45 l-22 45 -70 0 c-38 0 -70 -4 -70 -8z"/>
<path d="M3445 1715 c-14 -195 9 -250 103 -248 27 0 63 8 81 17 29 16 33 16
48 0 13 -13 27 -15 67 -9 28 3 56 11 63 17 10 8 13 52 13 163 0 175 6 165 -96
165 l-64 0 0 -130 c0 -126 -1 -131 -22 -139 -39 -15 -46 8 -41 133 4 82 2 116
-7 121 -7 4 -40 10 -75 13 l-63 5 -7 -108z"/>
<path d="M2054 1797 c-2 -7 -3 -82 -2 -167 l3 -155 105 -3 c149 -4 150 -4 150
63 l0 55 -50 0 -50 0 0 110 0 110 -75 0 c-53 0 -77 -4 -81 -13z"/>
<path d="M2372 1643 l3 -168 80 0 80 0 3 168 2 167 -85 0 -85 0 2 -167z"/>
<path d="M3143 1778 c-27 -34 -76 -177 -77 -223 l-1 -50 82 -3 c76 -3 82 -4
85 -25 3 -19 9 -22 48 -22 39 0 45 3 48 23 3 16 10 22 28 22 23 0 25 3 22 43
-2 35 -7 43 -25 45 -22 3 -23 7 -23 103 l0 99 -89 0 c-59 0 -92 -4 -98 -12z
m80 -125 c-5 -58 -7 -63 -29 -63 -13 0 -24 4 -24 8 0 23 43 132 50 125 4 -4 5
-36 3 -70z"/>
<path d="M4127 1763 c-12 -12 -8 -188 5 -201 8 -8 47 -12 110 -12 l97 0 16 31
c18 35 51 37 69 4 18 -32 26 -35 117 -35 118 0 121 2 117 120 l-3 95 -261 3
c-143 1 -263 -1 -267 -5z m503 -103 l0 -70 -83 0 c-76 0 -86 2 -107 25 -14 15
-35 25 -51 25 -17 0 -35 -9 -47 -25 -18 -23 -26 -25 -106 -25 l-86 0 0 70 0
70 240 0 240 0 0 -70z"/>
<path d="M4207 1674 c-17 -18 -4 -25 41 -22 26 2 47 8 47 13 0 12 -77 19 -88
9z"/>
<path d="M4490 1665 c0 -11 12 -15 45 -15 33 0 45 4 45 15 0 11 -12 15 -45 15
-33 0 -45 -4 -45 -15z"/>
</g>
</svg>
